<svg version="1.1" viewBox="0 0 512 512">
<path style="fill:#00DDC1;" d="M395.627,362.788l-1.234-12.196l-12.177-1.236c-0.621-0.063-15.428-1.514-34.137,1.065
	c-25.708,3.544-46.964,13.097-61.47,27.628c-4.764,4.772-8.76,10.011-12.113,15.501V214.544h-30v89.877
	c-4.788-11.565-11.206-21.506-19.113-29.426c-34.412-34.469-93.124-28.943-95.606-28.693l-12.177,1.236l-1.234,12.196
	c-0.063,0.622-1.512,15.452,1.064,34.192c3.539,25.75,13.076,47.04,27.583,61.569c25.645,25.687,64.784,29.163,84.09,29.163
	c6.6,0,10.885-0.407,11.517-0.47l3.877-0.394V512h30v-24.527c2.004,0.116,4.887,0.232,8.446,0.232
	c5.982,0,13.853-0.327,22.568-1.528c25.707-3.545,46.963-13.098,61.47-27.628C401.393,424.082,395.878,365.274,395.627,362.788z"/>
<path style="fill:#00CCB2;" d="M395.627,362.788l-1.234-12.197l-12.177-1.236c-0.621-0.063-15.428-1.514-34.137,1.065
	c-25.708,3.544-46.964,13.097-61.47,27.628c-4.764,4.772-8.76,10.011-12.113,15.501V214.544h-14.759V512h14.759v-24.527
	c2.004,0.116,4.887,0.232,8.446,0.232c5.982,0,13.853-0.327,22.568-1.528c25.707-3.545,46.963-13.098,61.47-27.628
	C401.393,424.082,395.878,365.274,395.627,362.788z"/>
<path style="fill:#FF001E;" d="M325.622,35.92L292.234,5.058l-32.502,30.048L227.229,5.057l-33.382,30.862L147.225,0v117.164
	c0,62.141,50.473,112.695,112.512,112.695c62.04,0,112.513-50.554,112.513-112.695V0.004L325.622,35.92z"/>
<path style="fill:#C30010;" d="M325.622,35.92L292.234,5.058l-32.497,30.043v194.758c62.04,0,112.512-50.554,112.512-112.695V0.004
	L325.622,35.92z"/>
</svg>
